HIERARCHY
ROOT Hips
{
  OFFSET 0 0 0
  CHANNELS 6 Xposition Yposition Zposition Zrotation Yrotation Xrotation
  JOINT LeftThigh
  {
    OFFSET 8.409438 0 -5.917753
    CHANNELS 3 Zrotation Yrotation Xrotation
    JOINT LeftLeg
    {
      OFFSET 0 0 -42.358652
      CHANNELS 3 Zrotation Yrotation Xrotation
      JOINT LeftFoot
      {
        OFFSET 0 0 -39.357303
        CHANNELS 3 Zrotation Yrotation Xrotation
      }
    }
  }
  JOINT RightThigh
  {
    OFFSET -8.409438 0 -5.917753
    CHANNELS 3 Zrotation Yrotation Xrotation
    JOINT RightLeg
    {
      OFFSET 0 0 -42.358652
      CHANNELS 3 Zrotation Yrotation Xrotation
      JOINT RightFoot
      {
        OFFSET 0 0 -39.357303
        CHANNELS 3 Zrotation Yrotation Xrotation
      }
    }
  }
  JOINT SpineLow
  {
    OFFSET 0 0 4.719101
    CHANNELS 3 Zrotation Yrotation Xrotation
    JOINT SpineMid
    {
      OFFSET 0 0 12.899191
      CHANNELS 3 Zrotation Yrotation Xrotation
      JOINT Chest
      {
        OFFSET 0 0 12.899191
        CHANNELS 3 Zrotation Yrotation Xrotation
        JOINT LeftShoulder
        {
          OFFSET 7.550562 1.41573 9.438202
          CHANNELS 3 Zrotation Yrotation Xrotation
          JOINT LeftArm
          {
            OFFSET 9.155056 0 4.247191
            CHANNELS 3 Zrotation Yrotation Xrotation
            JOINT LeftForearm
            {
              OFFSET 0 0 25.771955
              CHANNELS 3 Zrotation Yrotation Xrotation
              JOINT LeftHand
              {
                OFFSET 0 0 25.197169
                CHANNELS 3 Zrotation Yrotation Xrotation
              }
            }
          }
        }
        JOINT RightShoulder
        {
          OFFSET -7.550562 1.41573 9.438202
          CHANNELS 3 Zrotation Yrotation Xrotation
          JOINT RightArm
          {
            OFFSET -9.155056 0 4.247191
            CHANNELS 3 Zrotation Yrotation Xrotation
            JOINT RightForearm
            {
              OFFSET 0 0 -25.771955
              CHANNELS 3 Zrotation Yrotation Xrotation
              JOINT RightHand
              {
                OFFSET 0 0 -25.197169
                CHANNELS 3 Zrotation Yrotation Xrotation
              }
            }
          }
        }
        JOINT Neck
        {
          OFFSET 0 0 15.101124
          CHANNELS 3 Zrotation Yrotation Xrotation
          JOINT Head
          {
            OFFSET 0 0 11.325843
            CHANNELS 3 Zrotation Yrotation Xrotation
            End Site
            {
              OFFSET 0 0 14.157303
            }
          }
        }
      }
    }
  }
}
MOTION
Frames: 9
Frame Time: 0.0
0.0  89.887642  0.0  0.190585  -23.254835  -96.345303  18.031835  -14.939746  2.120283  6.047592  2.625224  26.315133  4.00711  1.495778  1.530353  0.955011  7.846721  -8.689063  0.588428  4.537353  20.015061  4.039671  0.733203  -0.06287  1.449213  -0.400651  0.516043  3.952873  -1.125548  1.38609  3.952873  -1.125548  1.38609  -3.382925  20.935534  6.425318  147.785468  34.88074  -170.820694  -3.435508  -5.564296  37.45675  82.877586  -3.124314  5.107151  -7.354708  1.544528  18.662478  78.772024  29.449963  30.16484  8.243007  6.7434  -52.070991  93.959204  5.402691  -20.65065  -6.141688  1.7709  0.313401  -4.606809  1.325185  0.252865  
0.0  89.887642  0.0  0.523612  -23.751863  -96.15108  18.019955  -14.543078  1.721174  6.849437  2.614819  26.999307  3.96315  1.440462  1.523165  0.13739  8.363669  -9.531761  0.838717  4.420981  20.51047  4.163353  0.623762  -0.078933  1.445612  -0.350973  0.477914  3.944593  -0.987473  1.284905  3.944593  -0.987473  1.284905  -3.138781  20.842097  6.649431  148.621157  35.08988  -170.554937  -3.40983  -5.612152  37.984819  83.132007  -2.634173  5.598794  -6.804845  1.578553  18.880355  78.657899  29.406352  30.066854  8.179369  6.591723  -52.738548  94.097284  5.056925  -20.651387  -5.72889  1.780124  0.282625  -4.297146  1.332583  0.228667  
0.0  89.887642  0.0  0.898875  -23.854342  -95.77534  17.479871  -14.018553  0.992789  7.668674  2.732829  27.914558  3.788967  1.335838  1.442699  -1.192429  8.956026  -10.715912  1.086304  4.293517  21.277555  4.296095  0.559438  -0.178618  1.399207  -0.294216  0.414411  3.819606  -0.827843  1.115349  3.819606  -0.827843  1.115349  -3.014466  20.769884  6.814358  149.30061  35.312735  -170.2812  -3.344079  -5.767419  38.51469  83.442292  -1.963436  6.279116  -6.350882  1.689093  19.094726  78.42067  29.322606  29.812913  8.217607  6.527583  -53.244665  94.175436  4.725895  -20.752727  -5.501689  1.780946  0.193241  -4.126498  1.334099  0.160972  
0.0  89.887642  0.0  1.387449  -24.048096  -95.47178  17.138218  -13.493838  0.074569  8.091341  3.096395  29.014973  3.795921  1.300835  1.550734  -2.294439  9.676088  -12.135716  1.157263  4.092847  22.477597  4.666005  0.648895  -0.313535  1.374618  -0.230012  0.336924  3.754202  -0.647613  0.907563  3.754202  -0.647613  0.907563  -2.88476  20.686333  7.097932  149.782111  35.520742  -169.974292  -3.261781  -6.085463  39.010947  83.819741  -1.101191  7.210148  -5.805644  1.867477  19.505171  78.164423  29.201913  29.563313  8.199247  6.542925  -53.595898  94.112434  4.338605  -20.89296  -5.173855  1.832579  0.209271  -3.880689  1.372779  0.172474  
0.0  89.887642  0.0  1.592191  -22.715013  -94.483033  15.56693  -12.725937  -1.404002  7.855123  3.476979  29.908375  3.824479  1.245796  1.679898  -4.776349  10.112605  -14.211983  0.907843  4.048741  23.884081  5.248242  0.69473  -0.44705  1.1206  -0.185111  0.159957  3.061866  -0.513267  0.42855  3.061866  -0.513267  0.42855  -2.807485  20.599879  7.430203  150.062291  35.737741  -169.624229  -3.180838  -6.578576  39.470899  84.306824  -0.080695  8.369662  -5.325277  2.078783  19.883051  76.771766  29.163311  28.64281  9.229131  6.664481  -53.578187  94.171841  3.761729  -20.882904  -4.892063  1.872256  0.235977  -3.669444  1.40241  0.191974  
0.0  89.887642  0.0  2.243095  -22.36922  -94.188724  14.586479  -11.375448  -2.213712  7.388522  3.586034  30.572114  4.104196  1.336959  1.953024  -6.008233  10.79437  -15.942243  0.930913  3.95632  25.504054  5.732618  0.763856  -0.528587  1.052033  -0.080646  0.105364  2.875278  -0.224972  0.284433  2.875278  -0.224972  0.284433  -3.043813  20.413238  7.473223  150.183763  35.940926  -169.182721  -3.013792  -7.240607  39.844992  84.885944  1.078187  9.645763  -4.899386  2.225712  20.018866  76.603544  28.752169  28.519007  9.070755  6.318441  -53.649419  94.325833  2.985596  -20.80539  -4.711887  1.842952  0.119575  -3.533971  1.38139  0.103895  
0.0  89.887642  0.0  3.090984  -21.358964  -93.970314  12.417763  -9.804439  -3.377765  7.238791  3.795811  31.664701  4.566019  1.442996  2.181296  -7.783257  11.589391  -17.839389  0.624261  3.70668  27.313323  6.605837  1.050571  -0.53066  0.959775  0.074782  0.070246  2.623672  0.201584  0.194943  2.623672  0.201584  0.194943  -3.843013  20.105515  7.321282  150.064161  36.121843  -168.706748  -2.893685  -8.025151  40.134902  85.658749  2.337212  11.047691  -4.946042  2.278499  20.090229  76.385823  28.226733  28.368295  8.946688  5.926987  -53.595226  94.540376  2.062346  -20.746888  -4.810469  1.735258  -0.064839  -3.607392  1.302049  -0.034966  
0.0  89.887642  0.0  4.223977  -19.659173  -93.981659  9.507409  -8.335983  -4.637182  7.578881  4.239741  33.083418  4.815103  1.557601  2.31621  -10.082865  12.582968  -19.571571  1.046826  3.746025  29.124756  6.754825  1.086464  -0.635319  0.814785  0.300848  0.090121  2.228356  0.819194  0.256452  2.228356  0.819194  0.256452  -5.164553  19.698938  6.928063  149.791535  36.354949  -168.198538  -2.836886  -8.888796  40.367702  86.769428  3.713868  12.42861  -5.023819  2.187979  20.205949  75.832519  27.726436  28.058049  8.848994  5.596438  -53.429998  94.709987  1.154665  -20.800431  -5.087037  1.525874  -0.347621  -3.814185  1.147393  -0.248017  
0.0  89.887642  0.0  5.468634  -17.433811  -93.936033  6.690183  -7.075285  -6.091957  7.867043  4.924267  34.553112  4.971769  1.65829  2.436989  -12.667763  13.691588  -21.143978  1.344135  3.966158  30.696639  6.949532  1.111883  -0.698266  0.611084  0.545872  0.141642  1.673788  1.488392  0.400992  1.673788  1.488392  0.400992  -6.678647  19.32821  6.310419  149.188975  36.714553  -167.644357  -2.828626  -9.764937  40.470617  88.211245  5.107298  13.654745  -5.026159  2.013832  20.193256  75.131049  27.197136  27.78379  8.712128  5.079862  -53.169118  94.981372  0.344834  -20.872508  -5.435589  1.306947  -0.760335  -4.074896  0.987067  -0.558652  
